<svg width="524" height="103" viewBox="0 0 524 103" fill="none" xmlns="http://www.w3.org/2000/svg">
    <path d="M135.906 73.3125C135.635 75.4167 135.094 77.3542 134.281 79.125C133.469 80.875 132.406 82.3854 131.094 83.6562C129.802 84.9062 128.26 85.8854 126.469 86.5938C124.698 87.2812 122.719 87.625 120.531 87.625C118.656 87.625 116.948 87.3646 115.406 86.8438C113.885 86.3021 112.521 85.5625 111.312 84.625C110.125 83.6875 109.094 82.5833 108.219 81.3125C107.365 80.0417 106.646 78.6562 106.062 77.1562C105.5 75.6562 105.073 74.0833 104.781 72.4375C104.51 70.7917 104.365 69.125 104.344 67.4375V61.0938C104.365 59.4062 104.51 57.7396 104.781 56.0938C105.073 54.4479 105.5 52.875 106.062 51.375C106.646 49.875 107.365 48.4896 108.219 47.2188C109.094 45.9271 110.125 44.8125 111.312 43.875C112.521 42.9375 113.885 42.2083 115.406 41.6875C116.927 41.1458 118.635 40.875 120.531 40.875C122.802 40.875 124.833 41.2292 126.625 41.9375C128.417 42.625 129.958 43.6146 131.25 44.9062C132.542 46.1771 133.573 47.7083 134.344 49.5C135.135 51.2917 135.656 53.2708 135.906 55.4375H130.125C129.938 54.0625 129.615 52.7812 129.156 51.5938C128.698 50.4062 128.083 49.3646 127.312 48.4688C126.542 47.5729 125.594 46.875 124.469 46.375C123.365 45.8542 122.052 45.5938 120.531 45.5938C119.156 45.5938 117.938 45.8229 116.875 46.2812C115.833 46.7188 114.927 47.3229 114.156 48.0938C113.406 48.8646 112.771 49.7604 112.25 50.7812C111.75 51.8021 111.344 52.8854 111.031 54.0312C110.719 55.1771 110.49 56.3542 110.344 57.5625C110.219 58.75 110.156 59.9062 110.156 61.0312V67.4375C110.156 68.5625 110.219 69.7292 110.344 70.9375C110.49 72.125 110.719 73.3021 111.031 74.4688C111.344 75.6146 111.75 76.6979 112.25 77.7188C112.75 78.7396 113.385 79.6458 114.156 80.4375C114.927 81.2083 115.833 81.8229 116.875 82.2812C117.917 82.7188 119.135 82.9375 120.531 82.9375C122.052 82.9375 123.365 82.6979 124.469 82.2188C125.594 81.7396 126.542 81.0729 127.312 80.2188C128.083 79.3438 128.698 78.3229 129.156 77.1562C129.615 75.9688 129.938 74.6875 130.125 73.3125H135.906ZM167.031 52.5625C167.573 52.5625 168.135 52.5833 168.719 52.625C169.302 52.6458 169.854 52.6979 170.375 52.7812C170.917 52.8438 171.406 52.9271 171.844 53.0312C172.302 53.1354 172.677 53.25 172.969 53.375L172.188 59.0312C171.062 58.7812 169.99 58.6042 168.969 58.5C167.969 58.375 166.917 58.3125 165.812 58.3125C163.104 58.3125 160.906 58.9271 159.219 60.1562C157.552 61.3854 156.323 63.1042 155.531 65.3125V87H149.719V53.1875H155.219L155.5 58.5625C156.875 56.7083 158.521 55.25 160.438 54.1875C162.375 53.1042 164.573 52.5625 167.031 52.5625ZM195.75 75L197.25 79.0938L207.562 53.1875H214.031L196.875 92.2188C196.479 93.0938 195.969 94.0208 195.344 95C194.74 95.9792 194 96.8854 193.125 97.7188C192.25 98.5521 191.229 99.25 190.062 99.8125C188.896 100.375 187.552 100.656 186.031 100.656C185.76 100.656 185.458 100.635 185.125 100.594C184.792 100.573 184.458 100.531 184.125 100.469C183.792 100.427 183.479 100.375 183.188 100.312C182.896 100.25 182.656 100.198 182.469 100.156L183.406 95.4375C183.552 95.4375 183.75 95.4479 184 95.4688C184.25 95.4896 184.51 95.5104 184.781 95.5312C185.052 95.5521 185.312 95.5625 185.562 95.5625C185.812 95.5833 186.01 95.5938 186.156 95.5938C186.948 95.5938 187.667 95.375 188.312 94.9375C188.979 94.5 189.562 93.9792 190.062 93.375C190.583 92.7708 191.021 92.1458 191.375 91.5C191.75 90.8542 192.042 90.3229 192.25 89.9062L194.562 85.4062L180 53.1875H186.469L195.75 75ZM250.281 70.4688C250.281 72.8854 249.99 75.1458 249.406 77.25C248.823 79.3333 247.969 81.1458 246.844 82.6875C245.719 84.2292 244.323 85.4375 242.656 86.3125C241.01 87.1875 239.125 87.625 237 87.625C234.938 87.625 233.115 87.2917 231.531 86.625C229.969 85.9583 228.625 85 227.5 83.75V100H221.719V53.1875H227L227.281 56.875C228.406 55.4792 229.76 54.4167 231.344 53.6875C232.948 52.9375 234.802 52.5625 236.906 52.5625C239.073 52.5625 240.99 52.9896 242.656 53.8438C244.323 54.6979 245.719 55.8854 246.844 57.4062C247.969 58.9271 248.823 60.75 249.406 62.875C249.99 64.9792 250.281 67.2917 250.281 69.8125V70.4688ZM244.5 69.8125C244.5 68.1667 244.312 66.6042 243.938 65.125C243.583 63.625 243.021 62.3125 242.25 61.1875C241.5 60.0417 240.542 59.1354 239.375 58.4688C238.208 57.8021 236.812 57.4688 235.188 57.4688C233.333 57.4688 231.771 57.9062 230.5 58.7812C229.25 59.6354 228.25 60.7396 227.5 62.0938V78.375C228.25 79.7083 229.25 80.8021 230.5 81.6562C231.75 82.4896 233.333 82.9062 235.25 82.9062C236.854 82.9062 238.24 82.5729 239.406 81.9062C240.573 81.2188 241.531 80.3021 242.281 79.1562C243.031 78.0104 243.583 76.6875 243.938 75.1875C244.312 73.6875 244.5 72.1146 244.5 70.4688V69.8125ZM273.875 45V53.1875H286.75V57.6562H273.875V76.0312C273.875 77.3438 274.042 78.4271 274.375 79.2812C274.708 80.1354 275.167 80.8229 275.75 81.3438C276.333 81.8438 277 82.1979 277.75 82.4062C278.521 82.6146 279.333 82.7188 280.188 82.7188C280.812 82.7188 281.458 82.6875 282.125 82.625C282.792 82.5417 283.438 82.4479 284.062 82.3438C284.708 82.2396 285.302 82.1354 285.844 82.0312C286.406 81.9062 286.865 81.8021 287.219 81.7188L288.031 85.8125C287.552 86.1042 286.969 86.3646 286.281 86.5938C285.594 86.8021 284.844 86.9792 284.031 87.125C283.219 87.2917 282.354 87.4167 281.438 87.5C280.542 87.5833 279.646 87.625 278.75 87.625C277.25 87.625 275.844 87.4167 274.531 87C273.24 86.5625 272.115 85.8854 271.156 84.9688C270.198 84.0312 269.438 82.8333 268.875 81.375C268.333 79.8958 268.062 78.1146 268.062 76.0312V57.6562H259.188V53.1875H268.062V45H273.875ZM297 69.7812C297 67.3438 297.354 65.0833 298.062 63C298.771 60.8958 299.781 59.0729 301.094 57.5312C302.427 55.9896 304.042 54.7812 305.938 53.9062C307.833 53.0104 309.969 52.5625 312.344 52.5625C314.74 52.5625 316.885 53.0104 318.781 53.9062C320.698 54.7812 322.312 55.9896 323.625 57.5312C324.958 59.0729 325.979 60.8958 326.688 63C327.396 65.0833 327.75 67.3438 327.75 69.7812V70.4688C327.75 72.9062 327.396 75.1667 326.688 77.25C325.979 79.3333 324.958 81.1458 323.625 82.6875C322.312 84.2292 320.708 85.4375 318.812 86.3125C316.917 87.1875 314.781 87.625 312.406 87.625C310.01 87.625 307.854 87.1875 305.938 86.3125C304.042 85.4375 302.427 84.2292 301.094 82.6875C299.781 81.1458 298.771 79.3333 298.062 77.25C297.354 75.1667 297 72.9062 297 70.4688V69.7812ZM302.781 70.4688C302.781 72.1354 302.979 73.7292 303.375 75.25C303.771 76.75 304.365 78.0729 305.156 79.2188C305.969 80.3646 306.979 81.2708 308.188 81.9375C309.396 82.6042 310.802 82.9375 312.406 82.9375C313.99 82.9375 315.375 82.6042 316.562 81.9375C317.771 81.2708 318.771 80.3646 319.562 79.2188C320.375 78.0729 320.979 76.75 321.375 75.25C321.771 73.7292 321.969 72.1354 321.969 70.4688V69.7812C321.969 68.1354 321.76 66.5625 321.344 65.0625C320.948 63.5417 320.344 62.2083 319.531 61.0625C318.74 59.9167 317.74 59.0104 316.531 58.3438C315.344 57.6562 313.948 57.3125 312.344 57.3125C310.74 57.3125 309.344 57.6562 308.156 58.3438C306.969 59.0104 305.969 59.9167 305.156 61.0625C304.365 62.2083 303.771 63.5417 303.375 65.0625C302.979 66.5625 302.781 68.1354 302.781 69.7812V70.4688ZM342.25 53.1875L342.656 58.1875C343.885 56.4375 345.396 55.0729 347.188 54.0938C348.979 53.0938 350.979 52.5833 353.188 52.5625C354.958 52.5625 356.562 52.8125 358 53.3125C359.458 53.8125 360.698 54.5938 361.719 55.6562C362.74 56.7188 363.521 58.0729 364.062 59.7188C364.625 61.3438 364.906 63.2812 364.906 65.5312V87H359.125V65.6562C359.125 64.1562 358.958 62.8854 358.625 61.8438C358.292 60.8021 357.792 59.9583 357.125 59.3125C356.479 58.6667 355.677 58.1979 354.719 57.9062C353.781 57.6146 352.698 57.4688 351.469 57.4688C349.531 57.4688 347.823 57.9583 346.344 58.9375C344.885 59.8958 343.719 61.1667 342.844 62.75V87H337.062V53.1875H342.25ZM373.875 69.7812C373.875 67.3438 374.229 65.0833 374.938 63C375.646 60.8958 376.656 59.0729 377.969 57.5312C379.302 55.9896 380.917 54.7812 382.812 53.9062C384.708 53.0104 386.844 52.5625 389.219 52.5625C391.615 52.5625 393.76 53.0104 395.656 53.9062C397.573 54.7812 399.188 55.9896 400.5 57.5312C401.833 59.0729 402.854 60.8958 403.562 63C404.271 65.0833 404.625 67.3438 404.625 69.7812V70.4688C404.625 72.9062 404.271 75.1667 403.562 77.25C402.854 79.3333 401.833 81.1458 400.5 82.6875C399.188 84.2292 397.583 85.4375 395.688 86.3125C393.792 87.1875 391.656 87.625 389.281 87.625C386.885 87.625 384.729 87.1875 382.812 86.3125C380.917 85.4375 379.302 84.2292 377.969 82.6875C376.656 81.1458 375.646 79.3333 374.938 77.25C374.229 75.1667 373.875 72.9062 373.875 70.4688V69.7812ZM379.656 70.4688C379.656 72.1354 379.854 73.7292 380.25 75.25C380.646 76.75 381.24 78.0729 382.031 79.2188C382.844 80.3646 383.854 81.2708 385.062 81.9375C386.271 82.6042 387.677 82.9375 389.281 82.9375C390.865 82.9375 392.25 82.6042 393.438 81.9375C394.646 81.2708 395.646 80.3646 396.438 79.2188C397.25 78.0729 397.854 76.75 398.25 75.25C398.646 73.7292 398.844 72.1354 398.844 70.4688V69.7812C398.844 68.1354 398.635 66.5625 398.219 65.0625C397.823 63.5417 397.219 62.2083 396.406 61.0625C395.615 59.9167 394.615 59.0104 393.406 58.3438C392.219 57.6562 390.823 57.3125 389.219 57.3125C387.615 57.3125 386.219 57.6562 385.031 58.3438C383.844 59.0104 382.844 59.9167 382.031 61.0625C381.24 62.2083 380.646 63.5417 380.25 65.0625C379.854 66.5625 379.656 68.1354 379.656 69.7812V70.4688ZM427.625 45V53.1875H440.5V57.6562H427.625V76.0312C427.625 77.3438 427.792 78.4271 428.125 79.2812C428.458 80.1354 428.917 80.8229 429.5 81.3438C430.083 81.8438 430.75 82.1979 431.5 82.4062C432.271 82.6146 433.083 82.7188 433.938 82.7188C434.562 82.7188 435.208 82.6875 435.875 82.625C436.542 82.5417 437.188 82.4479 437.812 82.3438C438.458 82.2396 439.052 82.1354 439.594 82.0312C440.156 81.9062 440.615 81.8021 440.969 81.7188L441.781 85.8125C441.302 86.1042 440.719 86.3646 440.031 86.5938C439.344 86.8021 438.594 86.9792 437.781 87.125C436.969 87.2917 436.104 87.4167 435.188 87.5C434.292 87.5833 433.396 87.625 432.5 87.625C431 87.625 429.594 87.4167 428.281 87C426.99 86.5625 425.865 85.8854 424.906 84.9688C423.948 84.0312 423.188 82.8333 422.625 81.375C422.083 79.8958 421.812 78.1146 421.812 76.0312V57.6562H412.938V53.1875H421.812V45H427.625ZM467.312 87.625C464.938 87.625 462.75 87.2188 460.75 86.4062C458.771 85.5938 457.073 84.4583 455.656 83C454.24 81.5417 453.135 79.8125 452.344 77.8125C451.552 75.8125 451.156 73.6354 451.156 71.2812V69.9688C451.156 67.2396 451.594 64.8021 452.469 62.6562C453.344 60.4896 454.5 58.6667 455.938 57.1875C457.396 55.6875 459.042 54.5417 460.875 53.75C462.729 52.9583 464.625 52.5625 466.562 52.5625C469 52.5625 471.125 52.9896 472.938 53.8438C474.771 54.6771 476.292 55.8438 477.5 57.3438C478.708 58.8229 479.604 60.5729 480.188 62.5938C480.792 64.6146 481.094 66.8021 481.094 69.1562V71.75H456.938C457 73.2917 457.292 74.7396 457.812 76.0938C458.354 77.4479 459.083 78.6354 460 79.6562C460.938 80.6562 462.052 81.4479 463.344 82.0312C464.635 82.6146 466.062 82.9062 467.625 82.9062C469.688 82.9062 471.521 82.4896 473.125 81.6562C474.729 80.8229 476.062 79.7188 477.125 78.3438L480.656 81.0938C480.094 81.9479 479.385 82.7708 478.531 83.5625C477.698 84.3333 476.729 85.0208 475.625 85.625C474.521 86.2292 473.271 86.7083 471.875 87.0625C470.479 87.4375 468.958 87.625 467.312 87.625ZM466.562 57.3125C465.396 57.3125 464.292 57.5312 463.25 57.9688C462.208 58.3854 461.271 59.0104 460.438 59.8438C459.604 60.6562 458.896 61.6667 458.312 62.875C457.75 64.0625 457.354 65.4375 457.125 67H475.312V66.5625C475.25 65.4375 475.031 64.3229 474.656 63.2188C474.302 62.1146 473.771 61.125 473.062 60.25C472.354 59.375 471.458 58.6667 470.375 58.125C469.312 57.5833 468.042 57.3125 466.562 57.3125ZM513.281 78.0312C513.281 77.3438 513.146 76.7292 512.875 76.1875C512.604 75.625 512.146 75.1146 511.5 74.6562C510.854 74.1979 510 73.7812 508.938 73.4062C507.875 73.0104 506.552 72.6562 504.969 72.3438C503.031 71.9479 501.26 71.4688 499.656 70.9062C498.073 70.3438 496.708 69.6771 495.562 68.9062C494.438 68.1146 493.562 67.1979 492.938 66.1562C492.312 65.0938 492 63.8646 492 62.4688C492 61.0938 492.323 59.8125 492.969 58.625C493.615 57.4167 494.521 56.3646 495.688 55.4688C496.854 54.5729 498.24 53.8646 499.844 53.3438C501.469 52.8229 503.25 52.5625 505.188 52.5625C507.271 52.5625 509.146 52.8333 510.812 53.375C512.479 53.9167 513.896 54.6667 515.062 55.625C516.229 56.5833 517.125 57.7083 517.75 59C518.396 60.2708 518.719 61.6458 518.719 63.125H512.938C512.938 62.3958 512.75 61.6875 512.375 61C512 60.2917 511.479 59.6667 510.812 59.125C510.146 58.5833 509.333 58.1458 508.375 57.8125C507.438 57.4792 506.375 57.3125 505.188 57.3125C503.958 57.3125 502.875 57.4479 501.938 57.7188C501.021 57.9896 500.25 58.3542 499.625 58.8125C499.021 59.2708 498.562 59.8021 498.25 60.4062C497.938 61.0104 497.781 61.6354 497.781 62.2812C497.781 62.9479 497.906 63.5417 498.156 64.0625C498.406 64.5833 498.833 65.0521 499.438 65.4688C500.062 65.8854 500.885 66.2604 501.906 66.5938C502.948 66.9271 504.26 67.25 505.844 67.5625C507.927 68 509.792 68.5104 511.438 69.0938C513.083 69.6562 514.469 70.3438 515.594 71.1562C516.719 71.9479 517.573 72.875 518.156 73.9375C518.76 75 519.062 76.2292 519.062 77.625C519.062 79.125 518.719 80.4896 518.031 81.7188C517.365 82.9479 516.427 84 515.219 84.875C514.01 85.75 512.562 86.4271 510.875 86.9062C509.188 87.3854 507.344 87.625 505.344 87.625C503.052 87.625 501.01 87.3229 499.219 86.7188C497.427 86.0938 495.906 85.2812 494.656 84.2812C493.427 83.2604 492.479 82.0833 491.812 80.75C491.167 79.4167 490.844 78.0312 490.844 76.5938H496.625C496.708 77.7812 497.021 78.7812 497.562 79.5938C498.125 80.4062 498.812 81.0625 499.625 81.5625C500.458 82.0625 501.375 82.4167 502.375 82.625C503.375 82.8333 504.365 82.9375 505.344 82.9375C507.781 82.9375 509.708 82.4896 511.125 81.5938C512.542 80.6979 513.26 79.5104 513.281 78.0312Z"
          fill="white"/>
    <path d="M15.5525 93.6922C10.8248 88.3198 6.09736 82.7328 3.08876 76.0711C0.0803672 68.9797 -0.779261 60.814 0.725037 53.0779C2.22934 45.3419 5.66744 38.0356 10.6101 31.8038C10.1803 37.1761 12.1144 42.7632 15.7674 46.8462C13.6184 36.5315 17.0568 25.3571 23.9332 17.1913C30.8096 9.02559 40.2649 3.65306 50.1497 0C45.2073 5.15736 44.5626 13.3231 46.4966 20.1997C48.4307 27.0762 52.5136 33.0931 56.1667 39.3249C59.8198 45.5566 63.2581 52.0033 63.473 59.0947C65.407 55.4417 67.556 51.7884 68.8454 47.7056C70.1347 43.6226 70.7794 39.3249 69.705 35.2419C73.573 39.9696 75.722 44.697 76.7964 50.714C77.8707 56.731 77.656 62.9627 77.0113 68.9797C76.1517 75.6414 74.4326 82.5178 70.7796 88.1049C66.4818 94.7665 59.6052 99.494 52.0841 102.073C38.7606 104.437 25.6522 102.503 15.5525 93.6922Z"
          fill="#F3705A"/>
    <path d="M31.8842 101.643C49.5051 108.52 66.9112 87.6755 57.2411 71.5587C57.2411 71.3438 57.0262 71.3438 57.0262 71.129C57.8858 79.9395 55.7368 86.3862 51.6538 90.0394C53.8028 84.8821 52.2985 78.8651 49.7198 73.7077C47.1411 68.7653 43.4881 64.2526 40.6944 59.525C37.9008 54.5826 35.752 48.9953 37.0414 43.4082C31.884 47.2762 28.2309 53.0783 26.7266 59.31C25.2223 65.5418 26.082 72.4184 28.8756 78.2204C25.6523 75.8567 23.2885 71.9887 23.0736 67.9057C19.6353 71.9887 17.4865 77.3608 17.7013 82.7331C17.7015 91.1138 24.3629 98.6349 31.8842 101.643Z"
          fill="#FFD15C"/>
</svg>
